<svg width="235" height="48" viewBox="0 0 235 48" fill="none" xmlns="http://www.w3.org/2000/svg">
<path d="M59.5568 19C59.4811 18.053 59.1259 17.3144 58.4915 16.7841C57.8665 16.2538 56.9148 15.9886 55.6364 15.9886C54.822 15.9886 54.1544 16.0881 53.6335 16.2869C53.1222 16.4763 52.7434 16.7367 52.4972 17.0682C52.2509 17.3996 52.1231 17.7784 52.1136 18.2045C52.0947 18.5549 52.1563 18.8722 52.2983 19.1562C52.4498 19.4309 52.6866 19.6818 53.0085 19.9091C53.3305 20.1269 53.7424 20.3258 54.2443 20.5057C54.7462 20.6856 55.3428 20.8466 56.0341 20.9886L58.4205 21.5C60.0303 21.8409 61.4081 22.2907 62.554 22.8494C63.6998 23.4081 64.6373 24.0663 65.3665 24.8239C66.0956 25.572 66.6307 26.4148 66.9716 27.3523C67.322 28.2898 67.5019 29.3125 67.5114 30.4205C67.5019 32.3333 67.0237 33.9527 66.0767 35.2784C65.1297 36.6042 63.7756 37.6127 62.0142 38.304C60.2623 38.9953 58.1553 39.3409 55.6932 39.3409C53.1648 39.3409 50.9583 38.9669 49.0739 38.2188C47.1989 37.4706 45.7405 36.3201 44.6989 34.767C43.6667 33.2045 43.1458 31.2064 43.1364 28.7727H50.6364C50.6837 29.6629 50.9063 30.411 51.304 31.017C51.7017 31.6231 52.2604 32.0824 52.9801 32.3949C53.7093 32.7074 54.5758 32.8636 55.5795 32.8636C56.4223 32.8636 57.1278 32.7595 57.696 32.5511C58.2642 32.3428 58.6951 32.054 58.9886 31.6847C59.2822 31.3153 59.4337 30.8939 59.4432 30.4205C59.4337 29.9754 59.2869 29.5871 59.0028 29.2557C58.7282 28.9148 58.2737 28.6117 57.6392 28.3466C57.0047 28.072 56.1477 27.8163 55.0682 27.5795L52.1705 26.9545C49.5947 26.3958 47.5634 25.4631 46.0767 24.1562C44.5994 22.84 43.8655 21.0455 43.875 18.7727C43.8655 16.9261 44.358 15.3116 45.3523 13.929C46.3561 12.5369 47.7434 11.4527 49.5142 10.6761C51.2945 9.89962 53.3352 9.51136 55.6364 9.51136C57.9848 9.51136 60.0161 9.90436 61.7301 10.6903C63.4441 11.4763 64.7652 12.5843 65.6932 14.0142C66.6307 15.4347 67.1042 17.0966 67.1136 19H59.5568ZM70.6293 39V17.1818H78.4702V39H70.6293ZM74.5497 14.9091C73.4891 14.9091 72.58 14.5587 71.8224 13.858C71.0649 13.1572 70.6861 12.3144 70.6861 11.3295C70.6861 10.3447 71.0649 9.50189 71.8224 8.80114C72.58 8.10038 73.4891 7.75 74.5497 7.75C75.6198 7.75 76.5289 8.10038 77.277 8.80114C78.0346 9.50189 78.4134 10.3447 78.4134 11.3295C78.4134 12.3144 78.0346 13.1572 77.277 13.858C76.5289 14.5587 75.6198 14.9091 74.5497 14.9091ZM82.4652 39V17.1818H89.9084V21.3295H90.1357C90.5902 19.9659 91.3667 18.8864 92.4652 18.0909C93.5637 17.2955 94.8705 16.8977 96.3857 16.8977C97.9197 16.8977 99.2408 17.3049 100.349 18.1193C101.457 18.9242 102.124 19.9943 102.352 21.3295H102.579C102.948 19.9943 103.734 18.9242 104.937 18.1193C106.139 17.3049 107.55 16.8977 109.17 16.8977C111.263 16.8977 112.958 17.5701 114.255 18.9148C115.562 20.2595 116.215 22.0492 116.215 24.2841V39H108.374V26.2727C108.374 25.3163 108.133 24.5682 107.65 24.0284C107.167 23.4792 106.518 23.2045 105.704 23.2045C104.899 23.2045 104.26 23.4792 103.786 24.0284C103.322 24.5682 103.09 25.3163 103.09 26.2727V39H95.5902V26.2727C95.5902 25.3163 95.3487 24.5682 94.8658 24.0284C94.3828 23.4792 93.7341 23.2045 92.9197 23.2045C92.38 23.2045 91.916 23.3277 91.5277 23.5739C91.1394 23.8201 90.8364 24.1752 90.6186 24.6392C90.4103 25.0937 90.3061 25.6383 90.3061 26.2727V39H82.4652ZM120.082 47.1818V17.1818H127.866V20.9886H128.037C128.321 20.25 128.738 19.5729 129.287 18.9574C129.836 18.3324 130.518 17.8352 131.332 17.4659C132.147 17.0871 133.094 16.8977 134.173 16.8977C135.613 16.8977 136.981 17.2812 138.278 18.0483C139.585 18.8153 140.646 20.0227 141.46 21.6705C142.284 23.3182 142.696 25.4583 142.696 28.0909C142.696 30.6098 142.303 32.6979 141.517 34.3551C140.741 36.0123 139.699 37.2481 138.392 38.0625C137.095 38.8769 135.67 39.2841 134.116 39.2841C133.094 39.2841 132.18 39.1184 131.375 38.7869C130.58 38.446 129.898 37.9867 129.33 37.4091C128.771 36.822 128.34 36.1591 128.037 35.4205H127.923V47.1818H120.082ZM127.753 28.0909C127.753 29.1515 127.89 30.0701 128.165 30.8466C128.449 31.6136 128.847 32.2102 129.358 32.6364C129.879 33.053 130.499 33.2614 131.219 33.2614C131.938 33.2614 132.549 33.0578 133.051 32.6506C133.563 32.2339 133.951 31.642 134.216 30.875C134.491 30.0985 134.628 29.1705 134.628 28.0909C134.628 27.0114 134.491 26.0881 134.216 25.321C133.951 24.5445 133.563 23.9527 133.051 23.5455C132.549 23.1288 131.938 22.9205 131.219 22.9205C130.499 22.9205 129.879 23.1288 129.358 23.5455C128.847 23.9527 128.449 24.5445 128.165 25.321C127.89 26.0881 127.753 27.0114 127.753 28.0909ZM153.822 9.90909V39H145.981V9.90909H153.822ZM168.271 39.3977C165.942 39.3977 163.934 38.9527 162.249 38.0625C160.572 37.1629 159.28 35.875 158.371 34.1989C157.471 32.5133 157.021 30.4962 157.021 28.1477C157.021 25.8939 157.476 23.9242 158.385 22.2386C159.294 20.553 160.577 19.2415 162.234 18.304C163.892 17.3665 165.847 16.8977 168.101 16.8977C169.749 16.8977 171.24 17.1534 172.575 17.6648C173.911 18.1761 175.052 18.9195 175.999 19.8949C176.946 20.8608 177.675 22.035 178.186 23.4176C178.697 24.8002 178.953 26.358 178.953 28.0909V29.9091H159.464V25.5909H171.737C171.728 24.9659 171.567 24.4167 171.254 23.9432C170.951 23.4602 170.539 23.0862 170.018 22.821C169.507 22.5464 168.925 22.4091 168.271 22.4091C167.637 22.4091 167.054 22.5464 166.524 22.821C165.994 23.0862 165.568 23.4555 165.246 23.929C164.933 24.4025 164.768 24.9564 164.749 25.5909V30.25C164.749 30.9508 164.895 31.5758 165.189 32.125C165.482 32.6742 165.904 33.1051 166.453 33.4176C167.002 33.7301 167.665 33.8864 168.442 33.8864C168.982 33.8864 169.474 33.8106 169.919 33.6591C170.374 33.5076 170.762 33.2898 171.084 33.0057C171.406 32.7121 171.643 32.3617 171.794 31.9545H178.953C178.707 33.4697 178.125 34.786 177.206 35.9034C176.287 37.0114 175.071 37.8731 173.555 38.4886C172.05 39.0947 170.288 39.3977 168.271 39.3977Z" fill="#4EA8DE"/>
<path d="M193.232 39H182.039V9.90909H193.119C196.111 9.90909 198.696 10.4915 200.874 11.6562C203.062 12.8116 204.747 14.4782 205.931 16.6562C207.124 18.8248 207.721 21.4242 207.721 24.4545C207.721 27.4848 207.129 30.089 205.945 32.267C204.762 34.4356 203.085 36.1023 200.917 37.267C198.748 38.4223 196.187 39 193.232 39ZM189.937 32.2955H192.948C194.388 32.2955 195.614 32.0634 196.627 31.5994C197.65 31.1354 198.426 30.3352 198.957 29.1989C199.496 28.0625 199.766 26.4811 199.766 24.4545C199.766 22.428 199.492 20.8466 198.942 19.7102C198.403 18.5739 197.607 17.7737 196.556 17.3097C195.514 16.8456 194.236 16.6136 192.721 16.6136H189.937V32.2955ZM222 39.3977C219.633 39.3977 217.606 38.929 215.92 37.9915C214.235 37.0445 212.942 35.7282 212.043 34.0426C211.143 32.3475 210.693 30.3826 210.693 28.1477C210.693 25.9129 211.143 23.9527 212.043 22.267C212.942 20.572 214.235 19.2557 215.92 18.3182C217.606 17.3712 219.633 16.8977 222 16.8977C224.367 16.8977 226.394 17.3712 228.08 18.3182C229.765 19.2557 231.058 20.572 231.957 22.267C232.857 23.9527 233.307 25.9129 233.307 28.1477C233.307 30.3826 232.857 32.3475 231.957 34.0426C231.058 35.7282 229.765 37.0445 228.08 37.9915C226.394 38.929 224.367 39.3977 222 39.3977ZM222.057 33.6023C222.72 33.6023 223.293 33.3797 223.776 32.9347C224.259 32.4896 224.633 31.8551 224.898 31.0312C225.163 30.2074 225.295 29.2273 225.295 28.0909C225.295 26.9451 225.163 25.965 224.898 25.1506C224.633 24.3267 224.259 23.6922 223.776 23.2472C223.293 22.8021 222.72 22.5795 222.057 22.5795C221.356 22.5795 220.755 22.8021 220.253 23.2472C219.751 23.6922 219.367 24.3267 219.102 25.1506C218.837 25.965 218.705 26.9451 218.705 28.0909C218.705 29.2273 218.837 30.2074 219.102 31.0312C219.367 31.8551 219.751 32.4896 220.253 32.9347C220.755 33.3797 221.356 33.6023 222.057 33.6023Z" fill="#5E60CE"/>
<path d="M7.23828 33.7617C6.01641 32.5398 6.82656 29.9766 6.20234 28.4758C5.57813 26.975 3.1875 25.6602 3.1875 24C3.1875 22.3398 5.55156 21.0781 6.20234 19.5242C6.85313 17.9703 6.01641 15.4602 7.23828 14.2383C8.46016 13.0164 11.0234 13.8266 12.5242 13.2023C14.025 12.5781 15.3398 10.1875 17 10.1875C18.6602 10.1875 19.9219 12.5516 21.4758 13.2023C23.0297 13.8531 25.5398 13.0164 26.7617 14.2383C27.9836 15.4602 27.1734 18.0234 27.7977 19.5242C28.4219 21.025 30.8125 22.3398 30.8125 24C30.8125 25.6602 28.4484 26.9219 27.7977 28.4758C27.1469 30.0297 27.9836 32.5398 26.7617 33.7617C25.5398 34.9836 22.9766 34.1734 21.4758 34.7977C19.975 35.4219 18.6602 37.8125 17 37.8125C15.3398 37.8125 14.0781 35.4484 12.5242 34.7977C10.9703 34.1469 8.46016 34.9836 7.23828 33.7617Z" stroke="#4EA8DE" stroke-width="2.125" stroke-linecap="round" stroke-linejoin="round"/>
<path d="M22.8438 20.8125L15.0477 28.25L11.1562 24.5312" stroke="#5E60CE" stroke-width="2.125" stroke-linecap="round" stroke-linejoin="round"/>
</svg>
